<?xml version="1.0" standalone="no"?>
<!DOCTYPE svg PUBLIC "-//W3C//DTD SVG 20010904//EN"
 "http://www.w3.org/TR/2001/REC-SVG-20010904/DTD/svg10.dtd">
<svg version="1.0" xmlns="http://www.w3.org/2000/svg"
 width="1307.000000pt" height="490.000000pt" viewBox="0 0 1307.000000 490.000000"
 preserveAspectRatio="xMidYMid meet">
<metadata>
Created by potrace 1.16, written by Peter Selinger 2001-2019
</metadata>
<g transform="translate(0.000000,490.000000) scale(0.100000,-0.100000)"
fill="#000000" stroke="none">
<path d="M4065 4105 c-88 -12 -206 -28 -262 -35 l-103 -12 0 -59 c0 -32 -3
-60 -8 -63 -4 -2 -104 -19 -222 -36 -118 -18 -219 -35 -223 -40 -5 -4 -26 -45
-48 -91 -32 -69 -43 -85 -66 -90 -16 -4 -152 -12 -303 -19 -151 -7 -279 -16
-284 -20 -12 -12 -56 -423 -46 -434 5 -4 11 16 15 45 3 30 11 99 18 154 l12
100 115 8 c232 15 1075 46 1082 39 3 -4 2 -33 -4 -65 -9 -52 -6 -79 7 -66 9
10 42 274 35 282 -4 5 -87 3 -185 -2 -97 -6 -188 -11 -201 -11 -13 0 -24 -5
-24 -11 0 -11 191 -7 334 7 l59 6 -5 -51 c-3 -28 -8 -54 -11 -57 -3 -3 -167
-12 -364 -20 -197 -7 -461 -18 -587 -24 -141 -6 -233 -7 -239 -1 -5 5 -6 28
-2 50 6 39 8 41 43 41 21 0 165 7 322 15 157 8 312 16 345 18 33 1 58 6 55 11
-3 5 -33 8 -67 7 -35 -1 -63 2 -63 7 0 17 69 162 77 162 5 0 100 14 213 30
112 17 210 28 217 26 7 -3 13 -19 13 -36 l0 -30 276 2 277 3 -3 100 c-2 115
-11 178 -25 180 -6 1 -82 -8 -170 -20z"/>
<path d="M1974 3976 c-32 -14 -70 -66 -83 -112 -6 -23 -13 -27 -50 -28 -102
-5 -142 -141 -58 -196 14 -10 61 -16 137 -20 l115 -5 3 -27 c3 -23 -2 -30 -23
-38 -19 -7 -24 -14 -18 -23 71 -96 88 -117 94 -117 9 0 99 117 99 129 0 6 -9
11 -21 11 -17 0 -20 5 -17 33 l3 32 134 5 c131 5 134 6 154 32 25 34 27 96 3
132 -10 16 -35 36 -57 45 -21 9 -39 21 -39 28 0 19 -51 74 -79 84 -17 7 -41 6
-74 -2 -44 -10 -50 -9 -70 9 -44 41 -99 51 -153 28z"/>
<path d="M576 3784 c-13 -12 -16 -41 -16 -153 0 -93 4 -141 12 -149 8 -8 53
-12 138 -12 118 0 130 -2 199 -31 40 -17 76 -28 79 -24 3 3 -6 30 -21 61 -25
50 -27 64 -27 174 0 68 -4 121 -10 125 -18 11 -13 -236 6 -280 8 -20 13 -40 9
-43 -3 -3 -22 3 -43 13 -29 15 -67 21 -177 25 l-140 5 -3 120 c-4 181 -17 167
146 165 166 -2 165 -2 157 10 -4 6 -65 10 -150 10 -117 0 -146 -3 -159 -16z"/>
<path d="M1294 3605 c-12 -9 -31 -12 -50 -9 -21 4 -34 1 -43 -10 -8 -9 -24
-16 -36 -16 -37 0 -64 -31 -80 -95 -20 -78 -19 -108 5 -155 20 -40 20 -49 4
-157 -6 -40 12 -44 20 -5 31 170 31 160 11 182 -24 26 -8 48 23 31 34 -18 73
-13 129 19 30 17 58 28 63 25 13 -8 13 -112 0 -120 -6 -4 -10 5 -10 19 0 14
-4 26 -10 26 -5 0 -10 -11 -10 -24 0 -13 -3 -32 -7 -41 -5 -14 -2 -16 16 -10
21 6 22 5 11 -17 -7 -12 -19 -31 -28 -40 -16 -19 -67 -24 -77 -8 -8 13 -25 13
-25 -1 0 -6 13 -16 30 -22 25 -10 29 -17 32 -54 4 -54 22 -54 26 1 3 27 13 51
32 73 29 32 44 72 55 145 4 26 10 36 20 32 20 -8 38 33 32 72 -4 22 -1 34 8
38 21 8 6 44 -27 68 -20 14 -26 23 -18 28 8 5 5 12 -11 24 -29 20 -59 20 -85
1z"/>
<path d="M3088 3404 c-15 -8 -32 -23 -38 -34 -7 -13 -21 -20 -40 -20 -47 0
-76 -16 -140 -77 -52 -50 -60 -63 -60 -95 0 -54 41 -84 123 -93 114 -12 328
-2 364 18 34 18 63 62 63 96 0 24 -46 81 -66 81 -8 0 -14 10 -14 23 0 82 -115
143 -192 101z m119 -24 c37 -22 55 -52 51 -82 -2 -15 6 -26 27 -38 43 -24 62
-61 47 -94 -25 -55 -50 -61 -242 -61 -182 0 -218 5 -244 31 -23 23 -20 71 6
92 12 9 38 34 59 54 41 40 75 54 113 44 19 -5 26 -1 31 15 8 26 62 59 95 59
14 0 39 -9 57 -20z"/>
<path d="M3723 3395 c-45 -19 -41 -28 7 -20 22 4 40 5 40 3 -3 -28 -42 -114
-54 -116 -24 -5 -96 18 -96 30 0 7 10 23 23 36 21 23 21 24 2 20 -45 -8 -124
-183 -96 -211 6 -6 12 4 16 29 3 22 12 53 20 70 l14 32 62 -18 63 -17 -3 -44
c-1 -24 -5 -47 -8 -51 -2 -5 -31 -8 -64 -8 -33 0 -59 -4 -59 -10 0 -6 28 -10
64 -10 63 0 64 0 70 -31 10 -51 8 -56 -31 -63 -21 -3 -47 -9 -59 -12 -16 -4
-24 3 -40 35 -19 41 -34 53 -34 27 0 -28 67 -111 112 -139 59 -37 146 -46 212
-24 43 15 45 15 51 -3 16 -50 92 -75 149 -49 77 35 67 163 -15 192 -13 4 -15
18 -11 81 8 123 -37 204 -141 256 -68 34 -139 39 -194 15z"/>
<path d="M1918 3108 c-8 -7 -35 -44 -60 -83 -30 -47 -77 -98 -142 -155 -53
-47 -100 -86 -105 -88 -4 -1 -18 43 -30 98 -14 64 -30 110 -44 126 -14 16 -57
37 -122 59 l-100 35 -30 -35 c-29 -33 -47 -39 -104 -36 -14 1 -40 18 -62 41
-38 40 -40 41 -89 34 -70 -9 -78 -28 -9 -22 50 5 56 4 79 -24 52 -61 151 -67
199 -12 l23 27 84 -27 c47 -15 96 -37 109 -49 31 -28 60 -140 41 -156 -22 -18
-89 -38 -154 -46 -34 -4 -62 -9 -62 -12 0 -3 10 -23 22 -44 12 -21 20 -41 17
-43 -2 -2 -22 -7 -43 -10 -22 -4 -42 -9 -45 -12 -3 -3 -13 -29 -22 -57 -15
-51 -16 -52 -50 -49 -64 6 -309 96 -309 113 0 5 14 33 30 62 17 30 30 59 30
65 0 21 -16 13 -28 -13 -11 -23 -16 -25 -84 -25 -80 0 -148 15 -148 32 0 26
85 200 106 217 13 10 44 24 69 31 51 14 62 35 13 25 -74 -16 -111 -46 -147
-120 -61 -127 -97 -252 -58 -201 11 13 20 13 77 0 36 -8 82 -11 103 -8 43 7
50 -11 17 -41 -11 -10 -20 -23 -20 -29 0 -13 224 -102 306 -122 32 -7 84 -14
114 -14 51 -1 53 -2 36 -15 -11 -8 -32 -15 -47 -15 -54 0 -38 -18 26 -30 36
-7 65 -17 65 -22 0 -7 -13 -8 -32 -4 -78 17 -101 19 -95 9 4 -6 34 -16 67 -23
33 -7 60 -17 60 -21 0 -13 -41 -11 -94 5 -34 10 -46 11 -43 3 2 -7 29 -19 59
-27 62 -17 78 -27 57 -35 -8 -3 -41 4 -73 14 -39 14 -56 17 -54 8 2 -7 25 -19
51 -27 48 -15 62 -30 29 -30 -66 0 -187 66 -176 95 7 16 -11 21 -21 5 -3 -5
-24 -1 -50 10 -24 10 -81 26 -127 35 -115 23 -176 41 -223 68 -36 21 -40 27
-40 62 0 22 4 52 8 68 10 38 -8 34 -22 -4 -14 -41 -14 -85 0 -111 13 -24 121
-75 178 -84 l41 -7 -2 -151 c-2 -161 -3 -155 60 -278 2 -5 -17 -8 -43 -8 l-46
0 3 -37 3 -38 70 -5 70 -5 -4 -30 c-5 -50 -100 -525 -113 -566 l-11 -39 -93 0
c-51 0 -96 -4 -99 -10 -4 -7 55 -10 170 -10 115 0 174 3 170 10 -3 6 -33 10
-67 10 -53 0 -59 2 -53 18 3 9 32 144 62 300 31 156 60 278 64 270 8 -16 109
-368 139 -488 20 -77 40 -124 40 -91 0 29 -120 473 -155 570 -20 58 -20 61 14
61 20 0 44 -14 80 -46 42 -37 54 -57 71 -110 28 -92 46 -205 65 -404 9 -96 21
-179 26 -185 6 -6 56 -9 114 -9 l103 2 7 -34 c6 -33 7 -34 56 -34 40 0 55 -5
74 -25 14 -13 25 -28 25 -33 0 -34 -102 -50 -225 -35 -68 8 -70 9 -73 38 -4
49 -12 75 -22 75 -13 0 0 -102 16 -119 10 -11 45 -14 147 -15 119 -1 137 1
156 18 27 25 27 48 -2 82 -18 21 -35 28 -75 32 -39 3 -53 9 -57 23 -8 23 1 39
21 39 18 0 18 -10 -6 260 -24 283 -45 431 -66 473 -25 48 -98 148 -133 181
-33 32 -40 49 -16 40 20 -8 107 -119 150 -191 26 -44 52 -69 102 -103 l68 -46
57 -129 c52 -118 129 -335 157 -442 l11 -41 88 -7 c109 -8 112 -9 112 -38 0
-30 18 -47 50 -47 36 0 70 -27 70 -55 0 -43 -82 -53 -227 -29 -30 6 -32 8 -38
67 -8 67 -12 80 -24 73 -4 -3 -3 -38 3 -77 10 -68 13 -73 41 -81 17 -5 74 -9
127 -11 90 -2 98 0 122 22 43 40 10 99 -61 110 -32 5 -38 11 -41 33 -3 21 1
27 20 30 13 2 22 8 21 13 -1 6 -27 134 -57 285 -57 280 -103 465 -127 516 -19
39 -137 136 -215 176 l-64 33 47 5 c54 6 46 -11 112 242 46 175 47 188 26 188
-21 0 -19 7 14 49 15 20 43 60 61 89 27 44 44 59 100 87 38 19 76 45 84 57 22
32 19 86 -8 133 -25 44 -58 55 -97 35 -15 -9 -24 -9 -32 -1 -15 15 -50 14 -69
-1z m52 -17 c0 -5 -11 -29 -25 -52 -30 -53 -34 -85 -5 -49 11 14 20 30 20 36
0 20 70 74 95 74 48 0 37 -32 -17 -45 -28 -7 -65 -41 -55 -51 3 -3 18 4 34 15
15 11 44 24 63 28 31 6 34 5 22 -10 -8 -9 -29 -21 -47 -27 -18 -6 -36 -18 -39
-27 -8 -19 2 -32 12 -17 11 17 94 55 89 41 -2 -7 -14 -17 -26 -23 -29 -15 -46
-32 -39 -40 4 -3 18 2 32 11 14 10 26 13 26 7 0 -14 -45 -45 -101 -70 -38 -16
-55 -33 -94 -93 -26 -41 -59 -86 -73 -102 l-26 -27 -150 5 c-246 9 -254 11
-273 51 -9 18 -14 36 -11 39 2 3 31 10 64 16 32 6 71 17 87 25 35 19 44 13 52
-36 6 -38 25 -66 25 -37 0 7 39 49 88 92 113 102 159 151 183 198 11 21 29 47
39 57 21 21 50 27 50 11z m-142 -447 c29 -6 33 -10 27 -28 -3 -11 -25 -96 -49
-189 -24 -92 -46 -170 -50 -174 -6 -6 -525 13 -532 20 -2 1 -1 13 3 25 5 21
10 22 50 16 38 -5 48 -3 69 17 65 61 73 159 12 159 -22 0 -23 8 -2 31 23 25 9
39 -37 39 -21 0 -39 3 -39 6 0 3 5 26 12 51 l11 46 246 -7 c135 -3 261 -9 279
-12z m-812 -212 c73 -26 154 -75 154 -94 0 -5 -18 -8 -41 -8 -31 0 -40 -3 -36
-14 16 -40 -160 -31 -190 10 -13 18 -18 116 -6 127 11 12 36 7 119 -21z m-26
-187 c0 -74 58 -138 180 -200 47 -24 95 -54 107 -67 57 -61 88 -193 98 -413 3
-82 9 -166 12 -185 4 -28 3 -33 -7 -23 -8 8 -17 82 -26 220 -14 218 -26 284
-66 355 -20 37 -38 51 -122 95 -54 28 -110 62 -123 75 -46 42 -93 168 -63 168
6 0 10 -11 10 -25z"/>
<path d="M2479 3113 c0 -5 -8 -81 -18 -171 -9 -90 -13 -166 -9 -168 5 -3 125
-9 269 -13 143 -5 262 -10 263 -12 2 -2 1 -59 -2 -126 l-5 -123 -66 0 c-229
-1 -480 -60 -507 -120 -5 -12 -6 -77 -1 -153 8 -151 7 -128 8 -277 1 -255 7
-456 14 -472 7 -16 -1 -18 -89 -18 -57 0 -96 -4 -96 -10 0 -6 45 -10 115 -10
87 0 124 -4 147 -16 51 -26 117 -42 241 -59 127 -16 432 -21 441 -6 3 5 -91
11 -212 14 -225 5 -334 19 -437 58 -82 30 -92 48 -101 162 l-7 97 54 -24 c133
-58 429 -87 693 -68 181 14 276 32 353 67 l53 24 0 -99 c0 -89 -2 -101 -22
-120 -32 -29 -118 -59 -230 -78 -54 -9 -98 -20 -98 -24 0 -11 24 -10 115 6
123 23 229 65 243 98 2 4 82 8 178 8 106 0 174 4 174 10 0 6 -67 11 -167 12
l-168 3 -1 130 c-1 72 -3 135 -5 140 -1 6 1 56 5 112 7 93 9 101 25 91 13 -8
30 -4 75 17 108 51 193 163 216 284 12 62 13 181 2 197 -4 6 -38 13 -77 16
-42 3 -95 16 -133 31 l-64 26 -67 -33 c-83 -42 -140 -51 -228 -36 -38 6 -132
14 -208 18 l-140 7 -3 110 c-1 61 2 116 7 123 7 11 62 12 317 5 221 -7 312 -7
321 1 6 6 15 45 19 86 5 55 3 72 -5 65 -6 -6 -14 -39 -17 -73 l-7 -62 -106 0
c-170 1 -1053 29 -1059 34 -4 5 11 187 25 284 3 28 1 42 -6 42 -6 0 -11 -3
-12 -7z m501 -672 c0 -33 -4 -40 -26 -45 -17 -5 -24 -12 -22 -24 4 -21 92 -30
114 -11 18 15 1 39 -27 39 -15 0 -19 8 -19 40 l0 40 98 0 c107 0 267 -17 294
-31 13 -7 17 -27 20 -91 2 -46 0 -87 -3 -92 -27 -33 -496 -47 -693 -21 -100
13 -128 13 -115 1 14 -14 158 -28 329 -33 174 -5 342 3 461 23 34 6 36 5 47
-34 7 -22 28 -64 47 -92 l34 -51 -32 -14 c-96 -40 -385 -71 -567 -61 -240 14
-413 53 -469 105 -30 28 -31 31 -31 120 0 50 2 91 4 91 2 0 23 -8 47 -19 59
-25 99 -34 99 -21 0 5 -12 13 -27 16 -16 4 -49 18 -75 31 -38 19 -48 28 -48
49 0 20 9 29 53 49 92 43 252 72 415 74 l92 1 0 -39z m738 -86 c38 -32 47 -67
27 -106 -22 -42 -75 -64 -121 -49 -69 23 -87 99 -35 151 38 38 87 39 129 4z
m-1236 -384 c118 -50 347 -76 603 -68 200 6 339 27 431 63 33 13 64 24 68 24
4 0 4 -42 0 -92 -5 -85 -8 -95 -34 -120 -36 -33 -133 -64 -265 -84 -144 -23
-525 -14 -646 14 -100 24 -174 56 -194 85 -11 15 -15 48 -15 109 0 49 2 88 4
88 2 0 24 -8 48 -19z"/>
<path d="M2640 2990 c0 -7 150 -10 430 -10 280 0 430 3 430 10 0 7 -150 10
-430 10 -280 0 -430 -3 -430 -10z"/>
<path d="M12536 2921 c-38 -26 -55 -57 -56 -104 0 -74 50 -127 120 -127 70 0
120 53 120 127 -1 70 -53 123 -120 123 -19 0 -48 -9 -64 -19z"/>
<path d="M2683 2888 c3 -10 97 -13 427 -13 330 0 424 3 428 13 3 9 -87 12
-428 12 -341 0 -431 -3 -427 -12z"/>
<path d="M11195 2888 c-3 -7 -4 -348 -3 -758 l3 -745 93 -3 92 -3 0 355 c0
324 2 359 20 418 24 78 74 139 144 176 46 24 61 27 156 27 98 0 109 -2 160
-30 30 -17 69 -49 87 -73 62 -82 66 -108 71 -510 l4 -363 86 3 87 3 0 385 c0
437 -2 454 -78 567 -78 117 -183 173 -342 181 -147 7 -255 -29 -345 -116 l-50
-48 -2 270 -3 271 -88 3 c-64 2 -89 -1 -92 -10z"/>
<path d="M5220 2095 l0 -715 340 0 340 0 0 75 0 75 -247 2 -248 3 -3 638 -2
637 -90 0 -90 0 0 -715z"/>
<path d="M6420 2499 c-242 -63 -384 -268 -383 -554 0 -187 47 -310 163 -425
106 -107 219 -150 390 -150 168 0 282 43 386 145 56 55 124 166 124 202 0 10
-22 13 -94 13 l-94 0 -25 -42 c-35 -59 -93 -113 -147 -137 -92 -40 -231 -36
-325 9 -54 26 -121 94 -150 151 -23 45 -47 147 -38 161 2 5 204 8 447 8 l444
0 6 53 c13 106 -19 250 -77 350 -31 52 -116 134 -178 170 -110 65 -303 84
-449 46z m302 -159 c122 -46 199 -143 210 -265 l3 -40 -353 -5 -352 -5 0 32
c0 126 133 273 274 303 57 12 158 3 218 -20z"/>
<path d="M7710 2499 c-287 -75 -451 -372 -384 -696 43 -207 191 -366 390 -418
75 -19 233 -19 309 0 95 24 184 74 250 140 72 72 106 127 140 228 21 63 25 94
25 189 0 127 -14 190 -61 288 -39 78 -140 182 -216 223 -123 66 -307 84 -453
46z m296 -161 c211 -69 307 -333 213 -584 -27 -72 -108 -155 -186 -192 -52
-24 -70 -27 -163 -27 -92 0 -112 3 -160 26 -137 65 -210 199 -210 384 1 144
33 229 120 315 43 44 69 61 120 78 86 28 180 29 266 0z"/>
<path d="M9011 2500 c-203 -54 -341 -216 -379 -445 -52 -317 109 -598 383
-670 67 -17 217 -20 296 -5 137 26 282 139 339 264 45 98 46 96 -64 96 l-94 0
-27 -55 c-30 -62 -90 -117 -156 -141 -62 -24 -199 -24 -266 -1 -163 57 -256
260 -224 488 22 153 89 253 203 304 77 35 193 40 275 11 65 -22 144 -91 173
-151 l22 -45 94 0 c112 0 112 1 59 107 -41 82 -116 160 -194 201 -116 62 -298
79 -440 42z"/>
<path d="M10261 2500 c-91 -24 -149 -57 -223 -127 -64 -62 -119 -158 -145
-254 -22 -84 -22 -261 0 -346 51 -196 190 -340 372 -388 79 -20 241 -19 326 3
131 35 250 133 309 256 46 97 46 96 -64 96 l-94 0 -26 -55 c-60 -122 -201
-184 -357 -157 -84 15 -117 30 -176 85 -164 151 -164 516 0 664 66 59 139 87
232 87 51 0 99 -6 132 -18 65 -22 144 -91 173 -151 l22 -45 94 0 c112 0 112 1
59 107 -40 81 -125 168 -201 206 -113 57 -296 72 -433 37z"/>
<path d="M12509 2338 c0 -90 0 -332 0 -538 1 -206 1 -385 1 -397 0 -22 3 -23
90 -23 l90 0 0 560 0 560 -90 0 -90 0 -1 -162z"/>
</g>
</svg>
